<svg xmlns="http://www.w3.org/2000/svg">
    <symbol  viewBox="0 0 40 41" id="logo">
        <path d="M38.1013 12.3829C37.3558 10.6238 36.3691 8.9844 35.1715 7.5151C33.401 5.27825 31.1916 3.45367 28.6886 2.16146C26.1857 0.869246 23.4459 0.1387 20.6496 0.0179001C17.8533 -0.1029 15.0639 0.388783 12.465 1.46059C9.86614 2.5324 7.51669 4.16004 5.57129 6.23637C3.62589 8.3127 2.12865 10.7907 1.17813 13.5071C0.227602 16.2236 -0.154663 19.117 0.0564947 21.9969C0.267652 24.8769 1.06744 27.678 2.40323 30.2159C3.73901 32.7539 5.5805 34.9712 7.8065 36.7218C9.23482 37.8675 10.8131 38.7989 12.4943 39.4883C14.8514 40.4851 17.3741 40.9985 19.9215 41C25.1797 40.988 30.2189 38.8251 33.9343 34.9853C37.6497 31.1455 39.7382 25.9422 39.7421 20.516C39.7459 17.7171 39.1873 14.9477 38.1013 12.3829ZM19.9069 4.17416C22.1944 4.17391 24.4544 4.68987 26.5284 5.6859C26.0226 5.9114 25.4909 6.0689 24.9462 6.15454C23.154 6.42226 21.4938 7.2809 20.2133 8.60229C18.9328 9.92369 18.1007 11.637 17.8413 13.4864C17.7274 14.5237 17.2703 15.4886 16.547 16.2184C15.8238 16.9483 14.8787 17.3983 13.8713 17.4925C12.0791 17.7603 10.4189 18.6189 9.13838 19.9403C7.85788 21.2617 7.02583 22.975 6.7664 24.8244C6.67856 25.8107 6.2708 26.7375 5.6091 27.4549C4.46741 24.9654 3.95453 22.2184 4.11819 19.4695C4.28186 16.7205 5.11673 14.0589 6.54514 11.7325C7.97355 9.40597 9.94906 7.49018 12.2878 6.16338C14.6266 4.83658 17.2526 4.14188 19.9215 4.14393L19.9069 4.17416ZM7.79185 31.0981C7.96764 30.9319 8.14344 30.7807 8.31923 30.5993C9.62251 29.2953 10.4591 27.5741 10.6924 25.7164C10.787 24.6721 11.2388 23.6968 11.9669 22.965C12.6675 22.2124 13.6105 21.7501 14.6184 21.6649C16.4107 21.3972 18.0709 20.5386 19.3514 19.2172C20.6319 17.8958 21.4639 16.1825 21.7234 14.333C21.7867 13.2408 22.2409 12.2118 22.9979 11.4456C23.7158 10.7077 24.6678 10.2621 25.6787 10.1909C27.3252 9.9571 28.8607 9.20176 30.0735 8.02909C31.4544 9.21137 32.6244 10.6336 33.5307 12.2317C33.4751 12.3093 33.4112 12.3803 33.3403 12.4433C32.641 13.2025 31.6992 13.6751 30.6888 13.7737C28.8947 14.0367 27.232 14.8938 25.9506 16.2161C24.6693 17.5384 23.8387 19.2542 23.5838 21.1056C23.4806 22.1463 23.0319 23.1182 22.3137 23.8566C21.5955 24.5949 20.652 25.0544 19.6432 25.157C17.8457 25.4227 16.1793 26.2796 14.8914 27.6005C13.6035 28.9214 12.7628 30.6357 12.4943 32.4889C12.4154 33.2278 12.1696 33.9372 11.7765 34.56C10.2734 33.6391 8.9273 32.4696 7.79185 31.0981ZM19.9069 36.9334C18.4203 36.9351 16.941 36.7214 15.5121 36.2985C16.0008 35.3582 16.3186 34.3335 16.4496 33.275C16.5523 32.2366 16.9989 31.2666 17.7141 30.5285C18.4293 29.7904 19.3694 29.3295 20.3756 29.2236C22.1705 28.9589 23.8341 28.1016 25.1174 26.7799C26.4008 25.4583 27.235 23.7433 27.4952 21.8917C27.5979 20.8533 28.0445 19.8832 28.7597 19.1451C29.4749 18.4071 30.415 17.9462 31.4212 17.8402C32.7719 17.6589 34.0593 17.14 35.1715 16.3285C35.789 18.7441 35.8622 21.2736 35.3853 23.7229C34.9085 26.1722 33.8942 28.4763 32.4205 30.4583C30.9468 32.4403 29.0527 34.0477 26.8835 35.157C24.7143 36.2663 22.3278 36.8481 19.9069 36.8579V36.9334Z"/>
    </symbol>

    <symbol   viewBox="0 0 22 17" id="twitter">
        <path d="M21.46 2C20.69 2.35 19.86 2.58 19 2.69C19.88 2.16 20.56 1.32 20.88 0.31C20.05 0.81 19.13 1.16 18.16 1.36C17.37 0.5 16.26 0 15 0C12.65 0 10.73 1.92 10.73 4.29C10.73 4.63 10.77 4.96 10.84 5.27C7.28004 5.09 4.11004 3.38 2.00004 0.79C1.63004 1.42 1.42004 2.16 1.42004 2.94C1.42004 4.43 2.17004 5.75 3.33004 6.5C2.62004 6.5 1.96004 6.3 1.38004 6C1.38004 6 1.38004 6 1.38004 6.03C1.38004 8.11 2.86004 9.85 4.82004 10.24C4.46004 10.34 4.08004 10.39 3.69004 10.39C3.42004 10.39 3.15004 10.36 2.89004 10.31C3.43004 12 5.00004 13.26 6.89004 13.29C5.43004 14.45 3.58004 15.13 1.56004 15.13C1.22004 15.13 0.880039 15.11 0.540039 15.07C2.44004 16.29 4.70004 17 7.12004 17C15 17 19.33 10.46 19.33 4.79C19.33 4.6 19.33 4.42 19.32 4.23C20.16 3.63 20.88 2.87 21.46 2Z"/>
    </symbol>

    <symbol  viewBox="0 0 40 41" id="youtube">
        <path d="M8 10L13.19 7L8 4V10ZM19.56 2.17C19.69 2.64 19.78 3.27 19.84 4.07C19.91 4.87 19.94 5.56 19.94 6.16L20 7C20 9.19 19.84 10.8 19.56 11.83C19.31 12.73 18.73 13.31 17.83 13.56C17.36 13.69 16.5 13.78 15.18 13.84C13.88 13.91 12.69 13.94 11.59 13.94L10 14C5.81 14 3.2 13.84 2.17 13.56C1.27 13.31 0.69 12.73 0.44 11.83C0.31 11.36 0.22 10.73 0.16 9.93C0.0900001 9.13 0.0599999 8.44 0.0599999 7.84L0 7C0 4.81 0.16 3.2 0.44 2.17C0.69 1.27 1.27 0.69 2.17 0.44C2.64 0.31 3.5 0.22 4.82 0.16C6.12 0.0899998 7.31 0.0599999 8.41 0.0599999L10 0C14.19 0 16.8 0.16 17.83 0.44C18.73 0.69 19.31 1.27 19.56 2.17Z"/>
    </symbol>

    <symbol viewBox="0 0 18 18" id="insta">
        <path d="M13.0325 0H4.96724C2.22831 0 0 2.22841 0 4.96735V13.0327C0 15.7717 2.22831 18 4.96724 18H13.0325C15.7717 18 18 15.7716 18 13.0327V4.96735C18.0001 2.22841 15.7717 0 13.0325 0ZM16.4031 13.0327C16.4031 14.8911 14.8911 16.403 13.0327 16.403H4.96724C3.10892 16.4031 1.59705 14.8911 1.59705 13.0327V4.96735C1.59705 3.10903 3.10892 1.59705 4.96724 1.59705H13.0325C14.891 1.59705 16.403 3.10903 16.403 4.96735L16.4031 13.0327Z"/>
        <path d="M8.99996 4.36206C6.44245 4.36206 4.36182 6.44269 4.36182 9.00021C4.36182 11.5576 6.44245 13.6381 8.99996 13.6381C11.5575 13.6381 13.6381 11.5576 13.6381 9.00021C13.6381 6.44269 11.5575 4.36206 8.99996 4.36206ZM8.99996 12.041C7.32317 12.041 5.95886 10.6769 5.95886 9.0001C5.95886 7.3232 7.32306 5.959 8.99996 5.959C10.6769 5.959 12.0411 7.3232 12.0411 9.0001C12.0411 10.6769 10.6768 12.041 8.99996 12.041Z"/>
        <path d="M13.8327 3.00781C13.525 3.00781 13.2227 3.13238 13.0054 3.35065C12.787 3.56784 12.6615 3.87022 12.6615 4.17898C12.6615 4.48678 12.7871 4.78905 13.0054 5.00732C13.2226 5.22451 13.525 5.35015 13.8327 5.35015C14.1414 5.35015 14.4427 5.22451 14.661 5.00732C14.8793 4.78905 15.0038 4.48668 15.0038 4.17898C15.0038 3.87022 14.8793 3.56784 14.661 3.35065C14.4438 3.13238 14.1414 3.00781 13.8327 3.00781Z"/>
    </symbol>

    <symbol  viewBox="0 0 10 20" id="facebook">
        <path d="M10 0V4H8C7.31 4 7 4.81 7 5.5V8H10V12H7V20H3V12H0V8H3V4C3 2.93913 3.42143 1.92172 4.17157 1.17157C4.92172 0.421427 5.93913 0 7 0H10Z"/>
    </symbol>
</svg>